<svg id="Capa_1" data-name="Capa 1" xmlns="http://www.w3.org/2000/svg" viewBox="0 0 162.64 162.66"><defs><style>.cls-1{fill:#117bed;}</style></defs><title>quizgram</title><path class="cls-1" d="M222.7,208.9l-45.95-.41-38.4-41.79,46.15.4C197.05,180.83,209.59,194.54,222.7,208.9Z" transform="translate(-60.07 -46.82)"/><path class="cls-1" d="M68.72,91A82,82,0,0,1,97.54,59.35c32.44-21,78.37-15.29,104.72,14.44,25,28.24,26.8,70.9,6.9,98.68l-24.16-26c0-3.78.05-7.69.05-11.64,0-2.31,0-4.64-.07-7-.48-22.66-16.82-40.33-39.54-42.86-13.2-1.48-26.23,3.93-35.22,13.51a44.09,44.09,0,0,0-8.3,12.58,42.35,42.35,0,0,0-2.19,6.34,48,48,0,0,0-1.17,6" transform="translate(-60.07 -46.82)"/><path class="cls-1" d="M68.72,91" transform="translate(-60.07 -46.82)"/><path class="cls-1" d="M62.8,106.35" transform="translate(-60.07 -46.82)"/><path class="cls-1" d="M111.05,158.57Q133,182.44,155,206.23l2.14,2.3c-36.91,5.05-72.91-10.06-89.34-46.43-8.42-18.63-9.74-38.11-5-55.75" transform="translate(-60.07 -46.82)"/><path class="cls-1" d="M111.05,158.57" transform="translate(-60.07 -46.82)"/><path class="cls-1" d="M98.56,123.44" transform="translate(-60.07 -46.82)"/></svg>